<?xml version="1.0" encoding="utf-8" ?>
<svg xmlns="http://www.w3.org/2000/svg" xmlns:xlink="http://www.w3.org/1999/xlink" width="50" height="50">
	<defs>
		<clipPath id="clip_0">
			<rect x="-234.04688" y="-730.07056" width="1411.2" height="3732.8198" clip-rule="evenodd"/>
		</clipPath>
	</defs>
	<g clip-path="url(#clip_0)">
		<path fill="rgb(0,0,0)" stroke="none" transform="matrix(0.98 0 0 0.98 0.5 0.0294189)" d="M0.836102 1.5175e-05L49.1689 1.5175e-05C49.3902 1.11645e-05 49.6023 0.0881522 49.7583 0.244906C49.9143 0.40166 50.0013 0.614082 50 0.835099L50 49.1099C50 49.5684 49.6279 49.94 49.1689 49.94L0.831095 49.94C0.372102 49.94 1.51932e-05 49.5684 1.51932e-05 49.1099L1.51932e-05 0.835099C-0.00132716 0.613212 0.0863291 0.400026 0.243418 0.243126C0.400506 0.0862256 0.613949 -0.00132556 0.836102 1.5175e-05ZM43.9371 1.66518C43.4874 11.7863 35.1457 19.7632 25.0025 19.772C14.8593 19.7632 6.51763 11.7863 6.0679 1.66518L1.69221 1.66518C2.14275 14.1985 12.446 24.1266 25.0025 24.1266C37.559 24.1266 47.8623 14.1985 48.3128 1.66518L43.9371 1.66518ZM25.0025 13.7364C31.8104 13.7274 37.4464 8.45013 37.8943 1.66518L42.2699 1.66518C41.8837 10.9134 34.2649 18.2123 24.9975 18.2123C15.7301 18.2123 8.11128 10.9134 7.72505 1.66518L12.1007 1.66518C12.5489 8.45397 18.1908 13.7327 25.0025 13.7364ZM25.0025 7.70078C28.4778 7.69902 31.4068 5.11031 31.8314 1.66518L36.2321 1.66518C35.7825 7.52993 30.8915 12.0623 25.0025 12.0712C19.1261 12.0531 14.2547 7.51868 13.823 1.66518L18.2237 1.66518C18.6118 5.10922 21.5326 7.70978 25.0025 7.70078ZM19.8658 1.66518C20.2792 4.17972 22.4513 6.02776 25.0025 6.03562C27.5561 6.03398 29.7316 4.18298 30.1392 1.66518L19.8658 1.66518ZM16.0459 24.1424L1.66718 24.1424L1.66718 9.78099C4.2195 16.3782 9.44076 21.5932 16.0459 24.1424ZM33.9591 24.1424L48.3378 24.1424L48.3378 9.78099C45.7786 16.3737 40.5597 21.5862 33.9591 24.1424ZM1.66718 25.8026L1.66718 48.2798L48.3378 48.2798L48.3378 25.8026L1.66718 25.8026ZM16.8069 41.2041C16.8326 41.2761 16.82 41.3561 16.7735 41.4168C16.727 41.4774 16.6528 41.5103 16.5766 41.5042L15.4201 41.5042C15.3111 41.4992 15.218 41.4243 15.1898 41.3191L14.4488 36.5087L14.3987 36.5087L12.1758 41.5092C12.1448 41.5974 12.059 41.6545 11.9656 41.6492L11.7403 41.6492C11.6468 41.6545 11.5611 41.5974 11.53 41.5092L9.28208 36.5087L9.23702 36.5087L8.48104 41.3191C8.4528 41.4243 8.35965 41.4992 8.25074 41.5042L7.12928 41.5042C7.05304 41.5103 6.97887 41.4774 6.93233 41.4168C6.88579 41.3561 6.87323 41.2761 6.89898 41.2041L8.40093 32.6733C8.4163 32.5561 8.51801 32.4697 8.63624 32.4733L8.84651 32.4733C8.93347 32.4655 9.01653 32.5109 9.05678 32.5883L11.8554 38.5889L11.9005 38.5889L14.6991 32.5883C14.7394 32.5109 14.8224 32.4655 14.9094 32.4733L15.1197 32.4733C15.2311 32.4711 15.3282 32.549 15.35 32.6583L16.8069 41.2041ZM33.9141 41.1341C33.9649 41.2058 33.9682 41.3007 33.9225 41.3756C33.8768 41.4506 33.7908 41.4913 33.7038 41.4792L32.342 41.4792C32.2576 41.4764 32.1795 41.4337 32.1318 41.3641L30.3044 38.4739L30.2593 38.4739L28.477 41.3891C28.4252 41.4541 28.3494 41.4955 28.2667 41.5042L26.8549 41.5042C26.7672 41.5165 26.6802 41.4776 26.6311 41.404C26.582 41.3304 26.5795 41.2352 26.6246 41.1591L29.263 36.9487L26.7147 32.9483C26.6686 32.8759 26.6676 32.7837 26.7123 32.7104C26.7569 32.6371 26.8394 32.5955 26.925 32.6033L28.427 32.6033C28.5096 32.6119 28.5854 32.6534 28.6372 32.7183L30.2343 35.3985L30.2593 35.3985L31.9015 32.7183C31.9445 32.6437 32.0256 32.5993 32.1117 32.6033L33.6137 32.6033C33.7007 32.5911 33.7867 32.6318 33.8323 32.7068C33.878 32.7817 33.8747 32.8767 33.824 32.9483L31.2757 36.9487L33.9141 41.1341ZM43.1261 33.8734L43.1261 32.8333C43.1268 32.7154 43.0381 32.6161 42.9208 32.6033L37.3636 32.6033C37.3016 32.6004 37.2414 32.6237 37.1975 32.6675C37.1537 32.7113 37.1304 32.7714 37.1333 32.8333L37.1333 33.8734C37.1333 34.0004 37.2364 34.1034 37.3636 34.1034L39.2911 34.1034L39.2911 41.2291C39.3006 41.352 39.3983 41.4497 39.5214 41.4592L40.7229 41.4592C40.8501 41.4592 40.9532 41.3562 40.9532 41.2291L40.9532 34.1034L42.8958 34.1034C43.0229 34.1034 43.1261 34.0004 43.1261 33.8734ZM22.6895 41.2491L22.6895 32.8333C22.6895 32.7062 22.5864 32.6033 22.4592 32.6033L21.2777 32.6033C21.1505 32.6033 21.0474 32.7062 21.0474 32.8333L21.0474 41.2491C21.0474 41.3762 21.1505 41.4792 21.2777 41.4792L22.4592 41.4792C22.5864 41.4792 22.6895 41.3762 22.6895 41.2491Z" fill-rule="evenodd"/>
	</g>
</svg>
